<svg xmlns="http://www.w3.org/2000/svg" width="50" height="58" viewBox="0 0 50 58" fill="none">
  <path d="M16.6469 29.6919C16.3385 29.5641 15.9991 29.5306 15.6717 29.5956C15.3443 29.6607 15.0436 29.8215 14.8075 30.0575L8.54969 36.3125H2.5C2.05245 36.3125 1.62322 36.4903 1.30676 36.8068C0.990289 37.1232 0.8125 37.5524 0.8125 38V49.25C0.8125 49.6976 0.990289 50.1268 1.30676 50.4432C1.62322 50.7597 2.05245 50.9375 2.5 50.9375H8.54969L14.8075 57.1925C15.0435 57.4282 15.344 57.5887 15.6712 57.6537C15.9983 57.7187 16.3374 57.6852 16.6456 57.5576C16.9537 57.43 17.2172 57.214 17.4026 56.9367C17.5881 56.6595 17.6872 56.3335 17.6875 56V31.25C17.6874 30.9165 17.5885 30.5906 17.4033 30.3132C17.2181 30.0359 16.9549 29.8197 16.6469 29.6919ZM14.3125 51.9106L10.4425 48.0575C10.1263 47.7409 9.6974 47.5629 9.25 47.5625H4.1875V39.6875H9.25C9.6974 39.6871 10.1263 39.5091 10.4425 39.1925L14.3125 35.3253V51.9106ZM31.1875 43.625C31.1859 45.511 30.692 47.3639 29.7548 49.0005C28.8176 50.6372 27.4695 52.0009 25.8438 52.9569C25.4599 53.1454 25.0189 53.1813 24.6097 53.0571C24.2005 52.9329 23.8537 52.6581 23.6394 52.288C23.425 51.918 23.3592 51.4804 23.4552 51.0637C23.5511 50.6469 23.8017 50.2822 24.1562 50.0431C25.2723 49.3842 26.1973 48.4457 26.8398 47.3202C27.4824 46.1947 27.8203 44.921 27.8203 43.625C27.8203 42.329 27.4824 41.0553 26.8398 39.9298C26.1973 38.8043 25.2723 37.8658 24.1562 37.2069C23.8017 36.9678 23.5511 36.6031 23.4552 36.1863C23.3592 35.7696 23.425 35.332 23.6394 34.962C23.8537 34.5919 24.2005 34.3171 24.6097 34.1929C25.0189 34.0687 25.4599 34.1046 25.8438 34.2931C27.4695 35.2491 28.8176 36.6128 29.7548 38.2495C30.692 39.8861 31.1859 41.739 31.1875 43.625ZM48.6925 16.5575L32.9425 0.8075C32.6263 0.490942 32.1974 0.312894 31.75 0.3125H4.75C3.70571 0.3125 2.70419 0.727343 1.96577 1.46577C1.22734 2.20419 0.8125 3.20571 0.8125 4.25V26.75C0.8125 27.1976 0.990289 27.6268 1.30676 27.9432C1.62322 28.2597 2.05245 28.4375 2.5 28.4375C2.94755 28.4375 3.37678 28.2597 3.69324 27.9432C4.00971 27.6268 4.1875 27.1976 4.1875 26.75V4.25C4.1875 4.10082 4.24676 3.95774 4.35225 3.85225C4.45774 3.74676 4.60082 3.6875 4.75 3.6875H30.0625V17.75C30.0625 18.1976 30.2403 18.6268 30.5568 18.9432C30.8732 19.2597 31.3024 19.4375 31.75 19.4375H45.8125V53.75C45.8125 53.8992 45.7532 54.0423 45.6477 54.1477C45.5423 54.2532 45.3992 54.3125 45.25 54.3125H36.25C35.8024 54.3125 35.3732 54.4903 35.0568 54.8068C34.7403 55.1232 34.5625 55.5524 34.5625 56C34.5625 56.4476 34.7403 56.8768 35.0568 57.1932C35.3732 57.5097 35.8024 57.6875 36.25 57.6875H45.25C46.2943 57.6875 47.2958 57.2727 48.0342 56.5342C48.7727 55.7958 49.1875 54.7943 49.1875 53.75V17.75C49.1871 17.3026 49.0091 16.8737 48.6925 16.5575ZM33.4375 6.0725L43.4275 16.0625H33.4375V6.0725Z" fill="url(#paint0_linear_10453_2502)"/>
  <defs>
    <linearGradient id="paint0_linear_10453_2502" x1="2.5" y1="1.5" x2="45.5" y2="53" gradientUnits="userSpaceOnUse">
      <stop stop-color="#FC5C7D"/>
      <stop offset="1" stop-color="#6A82FB"/>
    </linearGradient>
  </defs>
</svg>