<svg width="52" height="52" viewBox="0 0 52 52" fill="none" xmlns="http://www.w3.org/2000/svg">
<g clip-path="url(#clip0_10291_912)">
<path d="M29.25 3.25C29.25 1.45234 27.7977 0 26 0C24.2023 0 22.75 1.45234 22.75 3.25V27.8992L15.2953 20.4445C14.0258 19.175 11.9641 19.175 10.6945 20.4445C9.425 21.7141 9.425 23.7758 10.6945 25.0453L23.6945 38.0453C24.9641 39.3148 27.0258 39.3148 28.2953 38.0453L41.2953 25.0453C42.5648 23.7758 42.5648 21.7141 41.2953 20.4445C40.0258 19.175 37.9641 19.175 36.6945 20.4445L29.25 27.8992V3.25ZM6.5 35.75C2.91484 35.75 0 38.6648 0 42.25V45.5C0 49.0852 2.91484 52 6.5 52H45.5C49.0852 52 52 49.0852 52 45.5V42.25C52 38.6648 49.0852 35.75 45.5 35.75H35.1914L30.5906 40.3508C28.0516 42.8898 23.9383 42.8898 21.3992 40.3508L16.8086 35.75H6.5ZM43.875 41.4375C44.5215 41.4375 45.1415 41.6943 45.5986 42.1514C46.0557 42.6085 46.3125 43.2285 46.3125 43.875C46.3125 44.5215 46.0557 45.1415 45.5986 45.5986C45.1415 46.0557 44.5215 46.3125 43.875 46.3125C43.2285 46.3125 42.6085 46.0557 42.1514 45.5986C41.6943 45.1415 41.4375 44.5215 41.4375 43.875C41.4375 43.2285 41.6943 42.6085 42.1514 42.1514C42.6085 41.6943 43.2285 41.4375 43.875 41.4375Z" fill="url(#paint0_linear_10291_912)"/>
</g>
<defs>
<linearGradient id="paint0_linear_10291_912" x1="0" y1="0" x2="56.9616" y2="45.8338" gradientUnits="userSpaceOnUse">
<stop stop-color="#FC5C7D"/>
<stop offset="1" stop-color="#6A82FB"/>
</linearGradient>
<clipPath id="clip0_10291_912">
<rect width="52" height="52" fill="white"/>
</clipPath>
</defs>
</svg>
